<svg xmlns="http://www.w3.org/2000/svg" width="333" height="119" viewBox="0 0 333 119">
  <g fill-rule="evenodd">
    <path d="M89.879,0.682 C89.879,0.682 70.366,70.752 66.712,83.876 C65.09,89.698 64.392,92.145 55.264,91.916 C42.605,91.784 44.919,85.974 45.346,83.876 C45.773,81.779 68.514,0.682 68.514,0.682 L27.974,0.682 L0.887,97.946 C-2.359,109.738 9.378,118.839 19.262,118.776 C27.177,118.725 44.009,118.776 72.904,118.776 C96.924,118.776 99.412,109.927 101.921,100.102 C103.223,95.004 129.607,0.682 129.607,0.682 L89.879,0.682 Z"/>
    <polygon points="230.692 .682 144.267 .682 137.052 26.591 223.478 26.591"/>
    <polygon points="113 118.472 153.152 118.472 166.686 69.873 212.961 69.873 220.166 44 133.74 44"/>
    <path d="M271.189,42.303 C272.215,38.566 273.718,29.555 276.457,27.714 C278.955,26.033 283.907,26.497 288.414,26.497 C301.372,26.497 313.181,26.497 325.904,26.497 C328.262,17.911 330.693,9.399 332.998,0.76 C311.247,0.76 289.495,0.76 267.744,0.76 C262.126,1.154 254.579,1.853 249.91,4.205 C242.659,7.855 240.692,15.665 238.156,24.875 C232.439,45.637 226.434,67.181 220.525,88.307 C219.327,92.587 217.481,96.952 217.08,100.87 C215.811,113.251 228.362,117.396 237.954,118.299 C259.84,118.299 281.726,118.299 303.612,118.299 C306.042,109.783 308.496,101.294 310.706,92.561 C301.59,92.561 292.848,92.561 283.144,92.561 C276.923,92.561 259.736,94.502 258.623,89.32 C258.156,87.143 259.794,83.585 260.447,81.214 C264.211,67.548 267.456,55.886 271.189,42.303 Z"/>
  </g>
</svg>
